<?xml version="1.0" standalone="no"?>
<!DOCTYPE svg PUBLIC "-//W3C//DTD SVG 20010904//EN"
 "http://www.w3.org/TR/2001/REC-SVG-20010904/DTD/svg10.dtd">
<svg version="1.0" xmlns="http://www.w3.org/2000/svg"
 width="512.000000pt" height="512.000000pt" viewBox="0 0 512.000000 512.000000"
 preserveAspectRatio="xMidYMid meet">
<g transform="translate(0.000000,512.000000) scale(0.100000,-0.100000)"
fill="#000000" stroke="none">
<path d="M2806 4462 c-2 -1 -38 -11 -82 -22 -43 -12 -86 -23 -94 -27 -30 -12
-46 -12 -80 -1 -19 6 -35 10 -35 9 0 -2 -20 5 -44 15 -28 11 -73 18 -120 18
-88 1 -122 -12 -252 -99 -45 -30 -83 -55 -85 -55 -2 0 -25 -21 -53 -46 -50
-47 -73 -88 -92 -172 -6 -26 -13 -55 -15 -64 -2 -10 -6 -27 -9 -39 -11 -51
-18 -58 -83 -84 -37 -15 -78 -32 -92 -38 -14 -5 -30 -11 -37 -13 -13 -2 -250
-121 -308 -154 -54 -30 -120 -76 -149 -103 -60 -56 -113 -287 -76 -331 7 -9 9
-16 4 -16 -5 0 -4 -4 2 -8 6 -4 21 -26 33 -50 26 -51 200 -230 291 -299 83
-64 167 -114 274 -164 84 -39 95 -50 101 -104 1 -11 3 -23 4 -26 0 -3 19 -15
41 -28 44 -25 57 -43 65 -94 6 -34 5 -35 -99 -101 -120 -76 -146 -108 -259
-309 -10 -18 -26 -45 -37 -62 -11 -16 -23 -38 -26 -47 -4 -10 -10 -18 -14 -18
-5 0 -11 -8 -14 -18 -4 -10 -23 -25 -44 -34 -20 -9 -77 -33 -127 -53 -49 -21
-94 -40 -100 -44 -5 -3 -15 -6 -21 -7 -6 -1 -40 -15 -75 -31 -35 -16 -83 -38
-107 -48 -23 -10 -42 -23 -42 -28 0 -4 -4 -5 -10 -2 -5 3 -47 -32 -92 -77 -56
-57 -98 -89 -128 -101 -25 -9 -85 -41 -135 -70 l-90 -52 -68 -135 c-38 -74
-73 -136 -78 -138 -5 -2 -9 -8 -9 -14 0 -5 -14 -23 -30 -40 -17 -16 -30 -33
-30 -36 0 -4 -14 -21 -30 -39 -17 -18 -30 -37 -30 -42 0 -6 -4 -11 -10 -11 -5
0 -10 -5 -10 -11 0 -11 -60 -92 -72 -97 -5 -2 -8 -8 -8 -14 0 -6 -11 -25 -23
-42 -13 -17 -37 -53 -52 -80 -24 -41 -30 -46 -36 -30 -5 14 -7 12 -7 -11 l1
-31 2546 2 c1400 1 2550 2 2554 3 22 3 -117 215 -184 280 -46 45 -50 52 -75
156 -15 61 -27 116 -27 123 0 14 -118 138 -181 190 -21 17 -56 40 -77 49 -30
14 -41 26 -49 55 -13 44 -42 68 -160 128 -100 50 -236 123 -300 159 -82 47
-182 91 -252 110 -45 13 -49 17 -84 85 -20 39 -43 78 -50 87 -8 8 -14 19 -14
23 0 10 -63 100 -72 104 -5 2 -8 8 -8 14 0 13 -72 100 -132 159 -42 42 -200
144 -222 144 -5 0 -14 8 -20 18 -15 24 9 65 53 88 38 20 48 33 55 71 2 15 9
35 14 45 6 10 11 23 11 28 3 30 17 43 73 70 62 30 223 126 288 171 39 28 151
126 187 164 44 47 76 101 89 148 15 57 11 181 -7 241 -13 44 -78 119 -148 171
-19 14 -40 31 -47 38 -7 6 -15 12 -19 12 -3 0 -21 10 -38 23 -94 66 -244 133
-393 176 -39 12 -71 27 -72 33 0 7 -3 23 -5 34 -3 12 -8 37 -11 55 -14 81 -17
96 -27 139 -22 90 -48 122 -151 185 -49 31 -139 76 -160 81 -5 1 -9 2 -10 4
-4 3 -69 5 -72 2z"/>
</g>
</svg>
